# xmcd
#
# Track frame offsets:
#	150
#	22437
#	38900
#	53775
#	69211
#	80767
#	98794
#	119016
#	132656
#	145629
#	162998
#	178295
#
# Disc length: 2580 seconds
#
# Revision: 1
# Processed by: cddbd v1.4PL0 Copyright (c) Steve Scherf et al.
# Submitted via: audiograbber 1.82.01
#
DISCID=b30a120c
DTITLE=Lina Primard - Ce Soir
DYEAR=1998
DGENRE=Country
TTITLE0=Ce Soir
TTITLE1=Tous les Chemins de ma vie
TTITLE2=T'aimer pour la vie
TTITLE3=La Chanson de notre Amour
TTITLE4=Tyrolienne de la Cote-Nord
TTITLE5=Je me battrai pour moi
TTITLE6=Ce soir je pleure sur notre Amour
TTITLE7=Seul sans Amour
TTITLE8=Un Amour qui ne veut pas mourir
TTITLE9=Jamais assez Loin
TTITLE10=Marigot Bay
TTITLE11=La vie sans toi
EXTD=
EXTT0=
EXTT1=
EXTT2=
EXTT3=
EXTT4=
EXTT5=
EXTT6=
EXTT7=
EXTT8=
EXTT9=
EXTT10=
EXTT11=
PLAYORDER=
